<svg width="116" height="144" viewBox="0 0 116 144" fill="none" xmlns="http://www.w3.org/2000/svg">
<mask id="mask0_202_216" style="mask-type:luminance" maskUnits="userSpaceOnUse" x="54" y="0" width="19" height="34">
<path d="M54.0884 0H72.808V33.4982H54.0884V0Z" fill="white"/>
</mask>
<g mask="url(#mask0_202_216)">
<mask id="mask1_202_216" style="mask-type:luminance" maskUnits="userSpaceOnUse" x="49" y="-4" width="29" height="41">
<path d="M58.1062 -3.47141L77.4685 1.3432L68.7245 36.481L49.3622 31.6625L58.1062 -3.47141Z" fill="white"/>
</mask>
<g mask="url(#mask1_202_216)">
<mask id="mask2_202_216" style="mask-type:luminance" maskUnits="userSpaceOnUse" x="49" y="-4" width="29" height="41">
<path d="M58.1062 -3.47141L77.4685 1.3432L68.7245 36.481L49.3622 31.6625L58.1062 -3.47141Z" fill="white"/>
</mask>
<g mask="url(#mask2_202_216)">
<path d="M71.5302 18.6889C69.3249 27.5406 59.4687 32.7055 59.4687 32.7055C59.4687 32.7055 52.9915 23.4765 55.1929 14.6247C57.3981 5.77294 67.443 0.654297 67.443 0.654297C67.443 0.654297 73.7316 9.83707 71.5302 18.6889Z" fill="#4CAF50"/>
</g>
</g>
</g>
<mask id="mask3_202_216" style="mask-type:luminance" maskUnits="userSpaceOnUse" x="10" y="12" width="39" height="28">
<path d="M10.7375 12.8082H48.1768V39.4097H10.7375V12.8082Z" fill="white"/>
</mask>
<g mask="url(#mask3_202_216)">
<mask id="mask4_202_216" style="mask-type:luminance" maskUnits="userSpaceOnUse" x="2" y="2" width="55" height="49">
<path d="M2.5708 24.5271L16.4604 2.70941L56.9785 28.4989L43.0928 50.3166L2.5708 24.5271Z" fill="white"/>
</mask>
<g mask="url(#mask4_202_216)">
<mask id="mask5_202_216" style="mask-type:luminance" maskUnits="userSpaceOnUse" x="2" y="2" width="55" height="49">
<path d="M2.5708 24.5271L16.4604 2.70941L56.9785 28.4989L43.0928 50.3166L2.5708 24.5271Z" fill="white"/>
</mask>
<g mask="url(#mask5_202_216)">
<path d="M35.6919 17.0609C45.7791 23.4803 48.096 37.8818 48.096 37.8818C48.096 37.8818 33.9331 42.0883 23.8498 35.6727C13.7626 29.2532 11.5804 14.6362 11.5804 14.6362C11.5766 14.6362 25.6086 10.6414 35.6919 17.0609Z" fill="#4CAF50"/>
</g>
</g>
</g>
<mask id="mask6_202_216" style="mask-type:luminance" maskUnits="userSpaceOnUse" x="15" y="44" width="97" height="98">
<path d="M15.125 44.7516H111.925V141.552H15.125V44.7516Z" fill="white"/>
</mask>
<g mask="url(#mask6_202_216)">
<path d="M111.602 92.99C111.602 94.5679 111.525 96.1458 111.371 97.7161C111.213 99.2901 110.982 100.849 110.674 102.4C110.366 103.951 109.982 105.479 109.524 106.991C109.066 108.504 108.534 109.989 107.93 111.448C107.326 112.91 106.652 114.334 105.906 115.728C105.159 117.121 104.351 118.475 103.474 119.788C102.596 121.104 101.653 122.37 100.653 123.59C99.648 124.814 98.5897 125.98 97.4736 127.1C96.3575 128.216 95.1875 129.275 93.9636 130.279C92.7436 131.28 91.4774 132.219 90.1651 133.096C88.8489 133.974 87.498 134.786 86.1009 135.532C84.7078 136.275 83.2838 136.953 81.8252 137.557C80.3627 138.161 78.8771 138.692 77.3646 139.15C75.856 139.608 74.3242 139.993 72.7732 140.301C71.2261 140.609 69.6636 140.84 68.0933 140.994C66.5193 141.151 64.9413 141.228 63.3634 141.228C61.7816 141.228 60.2075 141.151 58.6335 140.994C57.0632 140.84 55.5007 140.609 53.9536 140.301C52.4026 139.993 50.8708 139.608 49.3622 139.15C47.8497 138.692 46.3641 138.161 44.9016 137.557C43.443 136.953 42.019 136.275 40.6258 135.532C39.2288 134.786 37.8779 133.974 36.5617 133.096C35.2493 132.219 33.9832 131.28 32.7632 130.279C31.5393 129.275 30.3693 128.216 29.2532 127.1C28.1371 125.98 27.0788 124.814 26.0743 123.59C25.0736 122.37 24.1307 121.104 23.2533 119.788C22.3758 118.475 21.5676 117.121 20.8209 115.728C20.0743 114.334 19.4008 112.91 18.7966 111.448C18.1923 109.989 17.6612 108.504 17.2032 106.991C16.7453 105.479 16.3604 103.951 16.0525 102.4C15.7446 100.849 15.5137 99.2901 15.3559 97.7161C15.202 96.1458 15.125 94.5679 15.125 92.99C15.125 91.4082 15.202 89.8341 15.3559 88.2601C15.5137 86.6898 15.7446 85.1273 16.0525 83.5763C16.3604 82.0292 16.7453 80.4974 17.2032 78.9849C17.6612 77.4724 18.1923 75.9869 18.7966 74.5282C19.4008 73.0696 20.0743 71.6418 20.8209 70.2486C21.5676 68.8554 22.3758 67.5045 23.2533 66.1883C24.1307 64.8759 25.0736 63.6097 26.0743 62.3859C27.0788 61.1659 28.1371 59.9959 29.2532 58.8798C30.3693 57.7637 31.5393 56.7015 32.7632 55.7009C33.9832 54.6964 35.2493 53.7573 36.5617 52.8798C37.8779 52.0024 39.2288 51.1903 40.6258 50.4475C42.019 49.7009 43.443 49.0274 44.9016 48.4232C46.3641 47.8189 47.8497 47.2878 49.3622 46.826C50.8708 46.368 52.4026 45.987 53.9536 45.6791C55.5007 45.3674 57.0632 45.1364 58.6335 44.9825C60.2075 44.8286 61.7816 44.7516 63.3634 44.7516C64.9413 44.7516 66.5193 44.8286 68.0933 44.9825C69.6636 45.1364 71.2261 45.3674 72.7732 45.6791C74.3242 45.987 75.856 46.368 77.3646 46.826C78.8771 47.2878 80.3627 47.8189 81.8252 48.4232C83.2838 49.0274 84.7078 49.7009 86.1009 50.4475C87.498 51.1903 88.8489 52.0024 90.1651 52.8798C91.4774 53.7573 92.7436 54.6964 93.9636 55.7009C95.1875 56.7015 96.3575 57.7637 97.4736 58.8798C98.5897 59.9959 99.648 61.1659 100.653 62.3859C101.653 63.6097 102.596 64.8759 103.474 66.1883C104.351 67.5045 105.159 68.8554 105.906 70.2486C106.652 71.6418 107.326 73.0696 107.93 74.5282C108.534 75.9869 109.066 77.4724 109.524 78.9849C109.982 80.4974 110.366 82.0292 110.674 83.5763C110.982 85.1273 111.213 86.6898 111.371 88.2601C111.525 89.8341 111.602 91.4082 111.602 92.99Z" fill="#FF9800"/>
</g>
<mask id="mask7_202_216" style="mask-type:luminance" maskUnits="userSpaceOnUse" x="0" y="0" width="116" height="144">
<path d="M0 0.288696H115.173V143.641H0V0.288696Z" fill="white"/>
</mask>
<g mask="url(#mask7_202_216)">
<path d="M88.6987 104.951C91.308 104.951 91.3119 100.891 88.6987 100.891C86.0816 100.891 86.0816 104.951 88.6987 104.951ZM27.2673 72.1767C29.8766 72.1767 29.8843 68.1165 27.2673 68.1165C24.6579 68.1165 24.6502 72.1767 27.2673 72.1767ZM20.1627 101.938C22.7721 101.938 22.776 97.8777 20.1627 97.8777C17.5495 97.8777 17.5457 101.938 20.1627 101.938ZM77.9919 120.962C80.6051 120.962 80.6051 116.901 77.9919 116.901C75.3825 116.901 75.3748 120.962 77.9919 120.962ZM54.2806 103.997C56.89 103.997 56.8938 99.9406 54.2806 99.9406C51.6636 99.9406 51.6597 103.997 54.2806 103.997ZM31.1621 124.856C33.7753 124.856 33.7791 120.8 31.1621 120.8C28.5489 120.8 28.5489 124.856 31.1621 124.856ZM110.89 86.0625C110.89 61.6431 94.3985 40.6952 71.4531 34.5335C69.0015 39.071 67.1619 43.928 66.0227 48.8311C65.43 51.3789 61.516 50.2897 62.1048 47.7496C62.4589 46.2295 62.9515 44.7285 63.4634 43.2545C64.5987 39.9716 65.9765 36.7426 67.5814 33.6445C66.8425 33.5021 66.1035 33.379 65.3531 33.2712C63.1594 37.3045 60.7617 40.1564 59.8342 41.1878L59.8919 41.4764L59.507 41.5495C59.4801 41.5803 59.4493 41.6111 59.4416 41.6227L59.3839 41.5688L57.8945 41.8497C54.9464 42.4039 52.1331 42.6772 49.466 42.6772C43.3852 42.6772 38.0511 41.2417 33.5213 38.386C15.6175 47.4148 4.15256 65.9189 4.15256 86.0625C4.15256 115.497 28.0947 139.435 57.525 139.435C86.9514 139.435 110.89 115.497 110.89 86.0625ZM34.8182 34.3834C40.1024 38.0743 46.8836 39.3597 55.0003 38.2167C53.2415 32.5323 46.4564 17.1763 24.9312 19.9435C25.9087 23.2725 28.5604 30.0153 34.8182 34.3834ZM53.3647 26.4977C56.1433 30.0615 57.7444 33.7407 58.6142 36.2693C60.1305 34.2411 62.1741 31.1275 63.6289 27.3982C66.7578 19.37 65.9419 12.0615 61.2081 5.64208C57.9676 8.10903 50.6783 15.1212 53.3647 26.4977ZM114.942 86.0625C114.942 117.729 89.1836 143.488 57.5211 143.488C25.8587 143.488 0.0999756 117.729 0.0999756 86.0625C0.0999756 65.053 11.692 45.7022 29.9536 35.6843C22.1794 28.7068 20.5091 19.0506 20.436 18.6042L20.1127 16.6298L22.0832 16.2796C34.8105 14.032 43.2659 17.388 48.7271 21.7716C48.6848 8.3284 60.4499 1.23158 60.5885 1.15076L62.0625 0.284821L63.1632 1.58565C69.8636 9.49068 71.3107 18.9698 67.3582 28.9954C67.2928 29.1493 67.2312 29.2994 67.1658 29.4495C68.0009 29.5919 68.8322 29.7497 69.6558 29.9268C76.4986 18.5426 86.6974 9.37907 100.098 6.28864C102.642 5.70365 103.72 9.61768 101.176 10.2027C89.5492 12.8813 79.997 20.8749 73.5852 30.9159C97.7121 37.9088 114.942 60.1729 114.942 86.0625ZM76.9643 50.0434C85.3042 55.851 91.5197 64.1639 94.7333 73.8085C95.5531 76.2755 99.4748 75.2171 98.6435 72.7271C95.0797 62.028 88.26 52.9799 79.0118 46.5373C76.8604 45.0441 74.8322 48.5579 76.9643 50.0434ZM96.5345 81.4519C96.3882 80.3589 97.5851 79.4198 98.5665 79.4198C99.7634 79.4198 100.452 80.3627 100.595 81.4519C100.891 83.6764 101.045 85.9124 101.053 88.1561C101.068 90.7693 97.0117 90.7693 96.9963 88.1561C96.9847 85.9124 96.8346 83.6764 96.5345 81.4519Z" fill="#545454"/>
</g>
</svg>
